HIERARCHY
ROOT hips
{
  OFFSET 0 11.86390953 0.3628582958
  CHANNELS 6 Xposition Yposition Zposition Yrotation Xrotation Zrotation
  JOINT spine
  {
    OFFSET 0 0.05383551117999996 0
    CHANNELS 3 Yrotation Xrotation Zrotation
    JOINT chest
    {
      OFFSET 0 0.6394558760401424 0
      CHANNELS 3 Yrotation Xrotation Zrotation
      JOINT neck
      {
        OFFSET 0 2.720089088562982 0
        CHANNELS 3 Yrotation Xrotation Zrotation
        JOINT head
        {
          OFFSET 0 0.37880844870545777 0
          CHANNELS 3 Yrotation Xrotation Zrotation
          JOINT rightEye
          {
            OFFSET -0.42867780714 0.7547055649100001 0.7381831347
            CHANNELS 3 Yrotation Xrotation Zrotation
            End Site
            {
              OFFSET -0.42867780714 0.7547055649100001 0.7381831347
            }
          }
          JOINT leftEye
          {
            OFFSET 0.428676479 0.7547055559999993 0.7381844503
            CHANNELS 3 Yrotation Xrotation Zrotation
            End Site
            {
              OFFSET 0.428676479 0.7547055559999993 0.7381844503
            }
          }
          JOINT jaw
          {
            OFFSET -0.18933892286100001 1.5626303011000007 1.137441874206
            CHANNELS 3 Yrotation Xrotation Zrotation
            End Site
            {
              OFFSET -0.18933892286100001 1.5626303011000007 1.137441874206
            }
          }
        }
      }
      JOINT rightShoulder
      {
        OFFSET -0.6795351508 2.0665205 0
        CHANNELS 3 Yrotation Xrotation Zrotation
        JOINT rightUpperArm
        {
          OFFSET -0.7287400483531672 0 0
          CHANNELS 3 Yrotation Xrotation Zrotation
          JOINT rightLowerArm
          {
            OFFSET -1.9872982039174532 0 0
            CHANNELS 3 Yrotation Xrotation Zrotation
            JOINT rightHand
            {
              OFFSET -2.6451847532219275 0 0
              CHANNELS 3 Yrotation Xrotation Zrotation
              JOINT rightLittleProximal
              {
                OFFSET -0.8008804099999995 -0.09592044000000044 -0.26183688629999996
                CHANNELS 3 Yrotation Xrotation Zrotation
                JOINT rightLittleIntermediate
                {
                  OFFSET -0.2473955153999997 -0.02541697026000067 0.002370178700999967
                  CHANNELS 3 Yrotation Xrotation Zrotation
                  JOINT rightLittleDistal
                  {
                    OFFSET -0.163687229200001 -0.015790700860001117 -0.0004274845300000635
                    CHANNELS 3 Yrotation Xrotation Zrotation
                    End Site
                    {
                      OFFSET -0.163687229200001 -0.015790700860001117 -0.0004274845300000635
                    }
                  }
                }
              }
              JOINT rightRingProximal
              {
                OFFSET -0.8393382799999985 -0.06223833561000025 -0.09213143500000005
                CHANNELS 3 Yrotation Xrotation Zrotation
                JOINT rightRingIntermediate
                {
                  OFFSET -0.3284497260000011 -0.03264224524000103 0.009408593183000052
                  CHANNELS 3 Yrotation Xrotation Zrotation
                  JOINT rightRingDistal
                  {
                    OFFSET -0.19447660429999902 -0.021730899850000318 0.003074347969000052
                    CHANNELS 3 Yrotation Xrotation Zrotation
                    End Site
                    {
                      OFFSET -0.19447660429999902 -0.021730899850000318 0.003074347969000052
                    }
                  }
                }
              }
              JOINT rightMiddleProximal
              {
                OFFSET -0.8473005199999989 -0.06735503500000095 0.10541820299999995
                CHANNELS 3 Yrotation Xrotation Zrotation
                JOINT rightMiddleIntermediate
                {
                  OFFSET -0.3450455799999995 -0.02481901642000084 0.019012570390000032
                  CHANNELS 3 Yrotation Xrotation Zrotation
                  JOINT rightMiddleDistal
                  {
                    OFFSET -0.23542332000000088 -0.025003910029999243 0.0075583457949999905
                    CHANNELS 3 Yrotation Xrotation Zrotation
                    End Site
                    {
                      OFFSET -0.23542332000000088 -0.025003910029999243 0.0075583457949999905
                    }
                  }
                }
              }
              JOINT rightIndexProximal
              {
                OFFSET -0.8008568281999987 -0.09897839600000169 0.29462796
                CHANNELS 3 Yrotation Xrotation Zrotation
                JOINT rightIndexIntermediate
                {
                  OFFSET -0.30524754480000016 -0.024634122809999992 0.02743375304999998
                  CHANNELS 3 Yrotation Xrotation Zrotation
                  JOINT rightIndexDistal
                  {
                    OFFSET -0.23067378950000017 -0.016876459159999913 0.008484125099999983
                    CHANNELS 3 Yrotation Xrotation Zrotation
                    End Site
                    {
                      OFFSET -0.23067378950000017 -0.016876459159999913 0.008484125099999983
                    }
                  }
                }
              }
              JOINT rightThumbProximal
              {
                OFFSET -0.25574064999999935 -0.12833189930000155 0.22385698609999993
                CHANNELS 3 Yrotation Xrotation Zrotation
                JOINT rightThumbIntermediate
                {
                  OFFSET -0.22791743260000086 -0.07103586192999978 0.27385039
                  CHANNELS 3 Yrotation Xrotation Zrotation
                  JOINT rightThumbDistal
                  {
                    OFFSET -0.13610267659999975 -0.03369390969999997 0.14246511509999996
                    CHANNELS 3 Yrotation Xrotation Zrotation
                    End Site
                    {
                      OFFSET -0.13610267659999975 -0.03369390969999997 0.14246511509999996
                    }
                  }
                }
              }
            }
          }
        }
      }
      JOINT leftShoulder
      {
        OFFSET 0.6795338396 2.0665205 0
        CHANNELS 3 Yrotation Xrotation Zrotation
        JOINT leftUpperArm
        {
          OFFSET 0.7287383950230443 0 0
          CHANNELS 3 Yrotation Xrotation Zrotation
          JOINT leftLowerArm
          {
            OFFSET 1.9872997282019604 0 0
            CHANNELS 3 Yrotation Xrotation Zrotation
            JOINT leftHand
            {
              OFFSET 2.6451820781302327 0 0
              CHANNELS 3 Yrotation Xrotation Zrotation
              JOINT leftLittleProximal
              {
                OFFSET 0.8008804099999995 -0.09592306899999814 -0.2618342639000001
                CHANNELS 3 Yrotation Xrotation Zrotation
                JOINT leftLittleIntermediate
                {
                  OFFSET 0.2473981400000007 -0.02542352681000093 0.0023609995859999455
                  CHANNELS 3 Yrotation Xrotation Zrotation
                  JOINT leftLittleDistal
                  {
                    OFFSET 0.1636846068000002 -0.015794634789999318 -0.00043272972159996703
                    CHANNELS 3 Yrotation Xrotation Zrotation
                    End Site
                    {
                      OFFSET 0.1636846068000002 -0.015794634789999318 -0.00043272972159996703
                    }
                  }
                }
              }
              JOINT leftRingProximal
              {
                OFFSET 0.8393409199999996 -0.062242267999998324 -0.0921281570000001
                CHANNELS 3 Yrotation Xrotation Zrotation
                JOINT leftRingIntermediate
                {
                  OFFSET 0.3284471036000003 -0.03264224524000103 0.009405970574000042
                  CHANNELS 3 Yrotation Xrotation Zrotation
                  JOINT leftRingDistal
                  {
                    OFFSET 0.1944779099999996 -0.021732211159998904 0.003073036670000001
                    CHANNELS 3 Yrotation Xrotation Zrotation
                    End Site
                    {
                      OFFSET 0.1944779099999996 -0.021732211159998904 0.003073036670000001
                    }
                  }
                }
              }
              JOINT leftMiddleProximal
              {
                OFFSET 0.8473005200000001 -0.06736028199999788 0.1054214809999999
                CHANNELS 3 Yrotation Xrotation Zrotation
                JOINT leftMiddleIntermediate
                {
                  OFFSET 0.3450455799999995 -0.024824261000000014 0.019013225990000007
                  CHANNELS 3 Yrotation Xrotation Zrotation
                  JOINT leftMiddleDistal
                  {
                    OFFSET 0.2354259489999998 -0.025005222000000327 0.0075590014499999705
                    CHANNELS 3 Yrotation Xrotation Zrotation
                    End Site
                    {
                      OFFSET 0.2354259489999998 -0.025005222000000327 0.0075590014499999705
                    }
                  }
                }
              }
              JOINT leftIndexProximal
              {
                OFFSET 0.8008594516999996 -0.09898495199999946 0.29463124239999994
                CHANNELS 3 Yrotation Xrotation Zrotation
                JOINT leftIndexIntermediate
                {
                  OFFSET 0.30524754480000016 -0.024632811499998963 0.02743047472
                  CHANNELS 3 Yrotation Xrotation Zrotation
                  JOINT leftIndexDistal
                  {
                    OFFSET 0.23067378950000017 -0.016876459159999913 0.008481502700000004
                    CHANNELS 3 Yrotation Xrotation Zrotation
                    End Site
                    {
                      OFFSET 0.23067378950000017 -0.016876459159999913 0.008481502700000004
                    }
                  }
                }
              }
              JOINT leftThumbProximal
              {
                OFFSET 0.25574326469999953 -0.12833321050000013 0.22385764169999997
                CHANNELS 3 Yrotation Xrotation Zrotation
                JOINT leftThumbIntermediate
                {
                  OFFSET 0.22804987480000094 -0.07138466829999968 0.273648441
                  CHANNELS 3 Yrotation Xrotation Zrotation
                  JOINT leftThumbDistal
                  {
                    OFFSET 0.13614857189999907 -0.033867001519998885 0.14238119169999996
                    CHANNELS 3 Yrotation Xrotation Zrotation
                    End Site
                    {
                      OFFSET 0.13614857189999907 -0.033867001519998885 0.14238119169999996
                    }
                  }
                }
              }
            }
          }
        }
      }
    }
  }
  JOINT rightUpperLeg
  {
    OFFSET -0.9749898906000001 -1.8495733739999998 0
    CHANNELS 3 Yrotation Xrotation Zrotation
    JOINT rightLowerLeg
    {
      OFFSET 0 -4.1566544686813165 0
      CHANNELS 3 Yrotation Xrotation Zrotation
      JOINT rightFoot
      {
        OFFSET 0.14539718599999998 -4.225553926 -0.3666210900000001
        CHANNELS 3 Yrotation Xrotation Zrotation
        JOINT rightToes
        {
          OFFSET 0.1706738473 -0.9584117400000015 1.0093348617
          CHANNELS 3 Yrotation Xrotation Zrotation
          End Site
          {
            OFFSET 0.1706738473 -0.9584117400000015 1.0093348617
          }
        }
      }
    }
  }
  JOINT leftUpperLeg
  {
    OFFSET 0.9749898906000001 -1.8495733739999998 0
    CHANNELS 3 Yrotation Xrotation Zrotation
    JOINT leftLowerLeg
    {
      OFFSET 0 -4.156653488267941 0
      CHANNELS 3 Yrotation Xrotation Zrotation
      JOINT leftFoot
      {
        OFFSET -0.14537357999999995 -4.225555399999999 -0.36661124279999996
        CHANNELS 3 Yrotation Xrotation Zrotation
        JOINT leftToes
        {
          OFFSET -0.17066467000000002 -0.9584157000000019 1.0093348617
          CHANNELS 3 Yrotation Xrotation Zrotation
          End Site
          {
            OFFSET -0.17066467000000002 -0.9584157000000019 1.0093348617
          }
        }
      }
    }
  }
}
MOTION
Frames: 4
Frame Time: 0.03333333333333333
-0.23073771595954895 -0.3947904580395516 -0.4287772476673126 -15.802522926014152 11.105594067145253 -4.918171841323429 -2.452821330044195 5.068966774188954 0.6676626436857801 0.9560937556274413 4.168063397373436 10.99016878722643 1.380619676678516 0.24522841889831123 -1.6220481644877907 25.045351182977758 -26.467098757921175 -25.384306263226964 0 0 0 0 0 0 0 0 0 -11.166384613414426 4.110739626129984 -10.40577195290016 -51.40374194483367 -57.04586933706726 89.35404114958807 146.99441259168375 1.3607659567661103 -0.40310495535012664 -10.280285196237074 -51.75525854491066 74.32381390957424 -16.944921409373286 9.021489814759482 84.42293125619912 -5.407354593392457 4.568118249548591 92.29381060111973 -0.03323594582714136 -0.8197490111869258 22.123030881595827 -10.981615087492706 6.239600545650648 75.55121425428972 -4.787455015969711 5.274831499462553 86.99933247554793 0.25045764982747265 -0.18721032209600152 17.804105554274972 -10.413126128115254 3.8742332661687673 64.766738823263 -5.764920802379923 4.020261665066566 80.11751198360325 -1.52308693085974 0.1875386131587127 15.913121927407186 -8.202843208892036 0.9474464446804984 10.90879382604186 -1.5464800448230587 0.07809799463901851 8.95930182960441 1.8368280760968692 0.12031093579639011 -7.14372849429136 0.7203717398013043 18.381197293013884 -8.787874191846186 -31.738038528028426 0.8893341308901253 3.1664393334560144 -19.947781684965403 4.2525400586310145 -1.9464381345002395 -14.77870292536812 -11.501276756768965 2.39431923761734 -54.12223491466518 48.8530650383043 -116.86869171417605 -86.57806352833117 0.6958830776102143 0.7388964148612375 -12.651790287410082 35.507652112041214 56.49472605659684 15.842056552009304 5.38566615506654 -35.625569051143444 3.4619185383727973 1.3046909406656226 -45.60491316600818 2.573246891005917 0.5107405624777729 -20.5361046642213 11.348362388220044 2.4405500373688565 -26.553765055619063 3.409818169641113 1.5344342932415853 -40.16007933086974 1.5898222412824854 0.5033965408542985 -19.351061901065208 8.564265580829007 0.8816118399361088 -15.807295809989183 3.586458217329825 0.7958313135772942 -33.39146544732373 1.3339289108849137 0.1540784211295698 -12.278667420653171 4.56500486496918 0.3332348821399505 -7.876691784177387 2.5750018668958776 0.34267620877177435 -20.583698616005897 0.6785168836196098 0.02292806520159569 -10.178998985345043 -53.75881650225336 11.786142981011007 13.378131290047053 11.347589385952974 4.892895282591122 -8.973398051185564 -6.647161268133061 4.492876998344785 -5.891143630972065 -0.373686192633458 -19.09002237194744 10.723454257108918 -5.083280569946328 15.754259589447434 3.7410698409713907 11.706753521995033 -6.142027030182055 -11.495849418784136 0.000004785094865341293 -1.815535220186699 6.490190118729248e-7 9.96584981732682 -29.385805721056325 12.897446162801117 10.874267825137057 20.209772720685077 4.9484031186346575 20.24158769367978 2.980122641942903 -10.971385126835035 0.000004677649606915119 0.006093552612503441 0.0000016493055858427263
-0.22972777485847473 -0.3926666253369149 -0.422621488571167 -15.631964859371216 11.279104997801262 -4.835323559280392 -2.6101032114534624 5.0964270984396265 0.7948947983541568 0.803470321410227 4.223154360810108 11.036513649509702 1.2473077874259795 0.49242876388144396 -2.1199764661886125 25.00471270646611 -24.848096890945943 -25.615510144600314 0 0 0 0 0 0 0 0 0 -11.058865859949613 4.175164262526114 -10.038545210670478 -55.31067662575858 -54.845458101457616 92.72022274421073 146.8396167961179 1.3596751670045866 -0.4047752187036128 -8.38909342357934 -52.3203093766942 72.10982479012965 -16.568121211462714 9.151723837215323 85.40174481918626 -5.407262843466237 4.5670317871881725 92.28126755458086 -0.03322082648555668 -0.8197363633703325 22.12300329293629 -10.90365933152186 6.12381640099999 76.52083793431643 -4.787549799822948 5.273295889719898 86.98180731923941 0.2505064481219576 -0.1872144042230388 17.803736185010703 -10.339568307866987 3.7500075253246754 65.73616881188703 -5.764697860428688 4.019187964699273 80.10465878020291 -1.523062286723749 0.18752644681908515 15.912882450425744 -8.36987802510814 1.1082389076441326 14.70836241829757 -1.6207587791412907 0.0902118818298723 9.814337549871732 1.7322746946954488 0.08233764528942265 -5.932081168051836 1.297938335767532 18.246332774066097 -7.762522570536043 -31.737458541623727 0.8891575385596704 3.166565702897099 -19.947505932556602 4.252490831119598 -1.9463675257585877 -14.662765572504972 -11.270737897002993 2.1483032251465737 -53.57246376646772 48.872163331215575 -116.47505266352458 -86.42752533156627 0.693922509040977 0.7388000046032164 -12.953998961296469 35.52928574733523 56.438977535622115 15.842061501933891 5.38566100971039 -35.62556147660443 3.4619125713164576 1.3046818669682778 -45.60492765797709 2.5732500895556893 0.5107377876031763 -20.53610146602435 11.348358199012948 2.440541705518369 -26.553761998744253 3.409827974171743 1.5344384568811449 -40.160069702513205 1.5898142518595186 0.503390083941891 -19.35105593598158 8.564243963358843 0.8815968437612596 -15.807304025829174 3.5864492693999948 0.7958257635132227 -33.39148819626121 1.3339377664178333 0.15408920006083124 -12.278668254899605 4.5649875715652035 0.33321369752307717 -7.87670240098972 2.5750076241517723 0.3426553976669609 -20.583707809517225 0.6785031708406886 0.022953368253054014 -10.178991422323628 -53.75881368853599 11.786139492364677 13.378132987036732 11.347590900511923 4.89291070672432 -8.973384820435761 -6.6471604174846535 4.492879567560724 -5.891146538220869 -0.3881109566173872 -19.201152618154396 10.631020245942155 -5.065969781951901 15.668422634541125 3.745332290663737 11.559837336768897 -6.14621064681778 -11.461788770650667 0.000008096070215376114 -1.8102921331454194 0.0000044506123200792645 9.945349129595357 -29.447256653516945 12.7608379518976 10.85956341196345 20.027103719716024 4.887233101728949 20.167046863925787 3.028619610659059 -10.89284357648938 0.000004688041929392395 0.006998670244075969 0.0000025033214631388595
-0.22892428934574127 -0.3912933343212899 -0.41873598098754883 -15.549424282645262 11.462687431576052 -4.7610037021511 -2.7570496379506446 5.111704913355489 0.8951563008116225 0.6702348933527444 4.27165854994978 11.093283528817658 1.1698664066073488 0.715504978097368 -2.574802303823199 25.016504594036807 -23.35350898044953 -25.87955272346829 0 0 0 0 0 0 0 0 0 -10.935432172693758 4.217692045942358 -9.791757406952764 -55.63121385753838 -53.86651254767553 93.5432658069244 146.24435716096116 1.3554365919693605 -0.41118739972147134 -5.801918637774334 -51.86301677845397 69.0548967920399 -16.18909612187457 9.24255139612069 86.3448808148011 -5.407249937389189 4.566920014843198 92.28003128845323 -0.03323853409298465 -0.819745969306982 22.122944951624827 -10.827737732625636 5.98746602219777 77.44778496523578 -4.787557767143129 5.273126124051908 86.9796803867114 0.25056642546755165 -0.18721956691311673 17.80311948570561 -10.26552130126841 3.6086098901645935 66.66166504634019 -5.764735344892029 4.019417340187075 80.10711599272793 -1.5230005163544373 0.18751007828979693 15.912366908667403 -8.509056344234017 1.3072156715366832 18.447036043923056 -1.6947615240845844 0.1034255620145472 10.668340977593054 1.6274665673049837 0.046760337357431736 -4.726549697093381 1.8760402113892078 18.10790069698282 -6.794023916597882 -31.738147500071157 0.8893714346201235 3.166418658563006 -19.94777524683559 4.252551188329683 -1.9464486160496348 -14.501680151101741 -11.031934799098195 1.9056317075426186 -53.13506951405253 48.8547051601278 -116.06677760104526 -86.30377861603222 0.69231655002529 0.7386882173230415 -13.177953030119784 35.512476797099005 56.42836499853547 15.842058201984193 5.385671300422733 -35.62556626290613 3.4619159810629463 1.3046938228989036 -45.60491316600818 2.5732500895556893 0.5107487803756233 -20.53610146602435 11.348362388220044 2.440539355509267 -26.55377269893558 3.4098151856534904 1.5344483855601267 -40.16006709160562 1.5898256551943166 0.5033877893366567 -19.351072699579102 8.56424480771244 0.8816052757741567 -15.807297453157236 3.5864565129622523 0.795818665835142 -33.3914976589418 1.3339508896773435 0.1540971108358818 -12.278654180677613 4.565003588349756 0.33321946059265023 -7.876696012841537 2.574992697932678 0.34267591528183433 -20.58370181313658 0.6785133620499332 0.022940458260672383 -10.17900318702345 -53.75882137840813 11.786143853172597 13.3781245020881 11.347583504935843 4.892900423968815 -8.973389052478938 -6.647157440215201 4.4928817085740125 -5.891143205030888 -0.3859198442210455 -19.35313158356357 10.54424731402991 -5.048350508790014 15.61654169515395 3.749884971557828 11.47501785568709 -6.141881480071992 -11.43787221003765 0.0000022497213084657907 -1.8112872763904864 2.5619235605876205e-7 9.930564657487396 -29.530586923647128 12.650357217880652 10.84804365140307 19.87972680645524 4.815513415665125 20.160072922044485 3.0719402038687584 -10.82270025564847 -0.000006158973052256652 0.007546331858263755 -7.72343965741517e-7
-0.2294112592935562 -0.390854644135743 -0.4165443181991577 -15.583506613747536 11.752215372760945 -4.67810637556144 -2.868208246130505 5.109987549995669 0.9689039462697681 0.5873070011202522 4.334557916388643 11.170182016364771 1.1341669483289611 0.9834683205443638 -3.1072939443698613 24.967422872137846 -21.632285344736076 -26.214156273810236 0 0 0 0 0 0 0 0 0 -10.738957023778784 4.241273461431669 -9.64931460450448 -53.04413706660236 -54.128241556650764 92.5842771234818 145.1644378589419 1.3475732836298355 -0.42272630669050604 -1.056872459479398 -50.015563665875106 63.259049408584374 -15.81498564654808 9.328668760223888 87.35794659692378 -5.407435763737258 4.568861258850822 92.30211075448581 -0.03322226070503216 -0.8197378042608285 22.12290055252023 -10.758356230689497 5.860753941041845 78.44064905585276 -4.787434377652348 5.275122159690729 87.00255622781472 0.25062112011051946 -0.1872172590439086 17.802294356138955 -10.201111140293522 3.4741760037331617 67.65069424121796 -5.765208495627543 4.0217179456642995 80.13423796777288 -1.5229614857171194 0.18749241575291306 15.911681550743067 -8.850246499932751 1.6680968653088428 23.575091392039205 -1.8031158069891604 0.12482116548605524 11.92280491341283 1.4713303010612724 -0.0017466804956012233 -2.9455890925538304 2.4520441878076524 17.95876268596218 -5.777893707803682 -31.741004700670132 0.890311766250526 3.1657940824994206 -19.949011668025175 4.252767789420407 -1.9467644209621497 -14.223099219590994 -10.658185683467048 1.562831158018916 -52.54071795672358 48.836542250799496 -115.33683259708445 -86.23617826812247 0.6914629275839497 0.7386407546390794 -13.412189069167573 35.53151405769217 56.273702605952856 15.842058201984193 5.38566315360878 -35.62556626290613 3.4619125713164576 1.3046938228989036 -45.60491316600818 2.573252221922196 0.5107414162853412 -20.536107862418113 11.34835082367078 2.440542132792752 -26.553768113246704 3.4098382049861007 1.5344305566419876 -40.160069702513205 1.5898217197912468 0.5033889633207299 -19.351069956781703 8.564261359061206 0.8816119466704497 -15.807295809989183 3.586448843308094 0.7958332347533207 -33.39148534462245 1.3339250699308565 0.15407714046446977 -12.27866241517446 4.565009971446829 0.3332230358302575 -7.876703246722565 2.574986087749824 0.3426571852875008 -20.583711006647732 0.6785037577689708 0.022934361782741088 -10.179007151895728 -53.75882137840813 11.786143853172597 13.378123694897404 11.347593420947888 4.892899995520673 -8.973382281209807 -6.647144709281747 4.49287871115541 -5.891151223574008 -0.34657745586871436 -19.64198848881417 10.436222010696737 -5.055778062536363 15.592024375410002 3.761985778750487 11.485843706137878 -6.118485782471362 -11.43282205186857 0.000002228846606480319 -1.8100802915637835 0.000001324258674234393 9.916587307778466 -29.700072343609193 12.543311788292922 10.828733601870939 19.734328133871497 4.710726631604059 20.272846997734998 3.1277151766620706 -10.75360648046639 2.3126136233276868e-7 0.007967643309887874 0.000001707117485065753
